<svg width="326" height="135" viewBox="0 0 326 135" fill="none" xmlns="http://www.w3.org/2000/svg">
<path d="M216.298 1.5C232.961 1.5 254.99 1.50317 275.475 4.91699C295.812 8.30615 314.243 15.0011 324.491 28.0068C324.336 34.4814 321.242 43.2672 315.989 52.9668C310.624 62.8702 303.113 73.5425 294.557 83.3701C285.999 93.2001 276.433 102.142 266.979 108.614C257.489 115.111 248.283 119 240.408 119C224.001 119 194.952 113.084 169.986 103.701C157.511 99.0127 146.156 93.4951 137.949 87.4863C129.662 81.4183 124.974 75.1391 124.974 69C124.974 62.5958 128.452 55.161 134.476 47.4961C140.47 39.87 148.84 32.2005 158.282 25.3594C167.72 18.5216 178.184 12.5443 188.331 8.28125C198.499 4.00995 208.253 1.50006 216.298 1.5Z" fill="url(#paint0_linear_331_241)" stroke="#3C2724" stroke-width="3"/>
<path d="M100.502 34C116.693 34 138.25 43.2713 155.835 56.1064C164.6 62.5045 172.296 69.7298 177.785 77.0186C183.294 84.3343 186.469 91.5627 186.469 98C186.469 104.344 183.379 109.69 178.017 114.206C172.628 118.745 165.022 122.37 156.261 125.177C138.75 130.788 117.048 133 100.502 133C83.952 133 59.0761 130.788 38.3835 125.158C28.0281 122.341 18.83 118.696 12.2537 114.121C5.67768 109.546 1.94409 104.212 1.94409 98C1.94409 91.6648 5.80572 84.4745 12.5056 77.127C19.1638 69.8252 28.4288 62.5842 38.7791 56.1699C59.5377 43.3053 84.2665 34 100.502 34Z" fill="url(#paint1_linear_331_241)" stroke="#3C2724" stroke-width="3"/>
<defs>
<linearGradient id="paint0_linear_331_241" x1="224.737" y1="0" x2="224.737" y2="120.5" gradientUnits="userSpaceOnUse">
<stop stop-color="#9E8078"/>
<stop offset="1" stop-color="#5E4443"/>
</linearGradient>
<linearGradient id="paint1_linear_331_241" x1="94.2064" y1="32.5" x2="94.2064" y2="134.5" gradientUnits="userSpaceOnUse">
<stop stop-color="#C7AA98"/>
<stop offset="1" stop-color="#5E4443"/>
</linearGradient>
</defs>
</svg>
