<svg width="800" height="800" viewBox="0 0 800 800" fill="none" xmlns="http://www.w3.org/2000/svg">
<rect width="800" height="800" fill="#FFECB3"/>
<path d="M161.73 663.568L163.458 662.32C165.634 661.04 167.17 660.4 168.066 660.4C170.05 660.4 172.194 662.192 174.498 665.776C175.906 668.016 176.61 669.808 176.61 671.152C176.61 672.496 176.162 673.616 175.266 674.512C174.434 675.408 173.442 676.208 172.29 676.912C171.138 677.616 170.018 678.288 168.93 678.928C167.906 679.568 165.762 680.4 162.498 681.424C159.234 682.448 156.066 682.96 152.994 682.96C149.986 682.96 146.914 682.576 143.778 681.808C140.706 680.976 137.506 679.632 134.178 677.776C130.914 675.856 127.97 673.552 125.346 670.864C122.722 668.112 120.546 664.624 118.818 660.4C117.154 656.112 116.322 651.472 116.322 646.48C116.322 641.488 117.154 636.976 118.818 632.944C120.482 628.848 122.594 625.488 125.154 622.864C127.778 620.176 130.754 617.936 134.082 616.144C140.354 612.688 146.658 610.96 152.994 610.96C156.002 610.96 159.042 611.44 162.114 612.4C165.25 613.296 167.618 614.224 169.218 615.184L171.522 616.528C172.674 617.232 173.57 617.808 174.21 618.256C175.874 619.6 176.706 621.136 176.706 622.864C176.706 624.528 176.034 626.288 174.69 628.144C172.194 631.6 169.954 633.328 167.97 633.328C166.818 633.328 165.186 632.624 163.074 631.216C160.386 629.04 156.802 627.952 152.322 627.952C148.162 627.952 144.066 629.392 140.034 632.272C138.114 633.68 136.514 635.664 135.234 638.224C133.954 640.784 133.314 643.696 133.314 646.96C133.314 650.16 133.954 653.04 135.234 655.6C136.514 658.16 138.146 660.176 140.13 661.648C144.034 664.464 148.098 665.872 152.322 665.872C154.306 665.872 156.162 665.616 157.89 665.104C159.682 664.592 160.962 664.08 161.73 663.568ZM215.942 610.768C225.414 610.768 233.638 614.192 240.614 621.04C247.59 627.888 251.078 636.4 251.078 646.576C251.078 656.688 247.75 665.328 241.094 672.496C234.438 679.6 226.246 683.152 216.518 683.152C206.79 683.152 198.502 679.632 191.654 672.592C184.87 665.552 181.478 657.168 181.478 647.44C181.478 642.128 182.438 637.168 184.358 632.56C186.278 627.888 188.838 623.984 192.038 620.848C195.238 617.712 198.918 615.248 203.078 613.456C207.238 611.664 211.526 610.768 215.942 610.768ZM198.47 646.96C198.47 652.656 200.294 657.296 203.942 660.88C207.654 664.4 211.782 666.16 216.326 666.16C220.87 666.16 224.966 664.432 228.614 660.976C232.262 657.52 234.086 652.88 234.086 647.056C234.086 641.232 232.23 636.56 228.518 633.04C224.87 629.52 220.774 627.76 216.23 627.76C211.686 627.76 207.59 629.552 203.942 633.136C200.294 636.656 198.47 641.264 198.47 646.96ZM290.38 610.768C299.852 610.768 308.076 614.192 315.052 621.04C322.028 627.888 325.516 636.4 325.516 646.576C325.516 656.688 322.188 665.328 315.532 672.496C308.876 679.6 300.684 683.152 290.956 683.152C281.228 683.152 272.94 679.632 266.092 672.592C259.308 665.552 255.916 657.168 255.916 647.44C255.916 642.128 256.876 637.168 258.796 632.56C260.716 627.888 263.276 623.984 266.476 620.848C269.676 617.712 273.356 615.248 277.516 613.456C281.676 611.664 285.964 610.768 290.38 610.768ZM272.908 646.96C272.908 652.656 274.732 657.296 278.38 660.88C282.092 664.4 286.22 666.16 290.764 666.16C295.308 666.16 299.404 664.432 303.052 660.976C306.7 657.52 308.524 652.88 308.524 647.056C308.524 641.232 306.668 636.56 302.956 633.04C299.308 629.52 295.212 627.76 290.668 627.76C286.124 627.76 282.028 629.552 278.38 633.136C274.732 636.656 272.908 641.264 272.908 646.96ZM361.937 646.672C371.729 656.08 378.673 663.152 382.769 667.888C384.881 670.256 385.937 672.272 385.937 673.936C385.937 675.536 384.657 677.456 382.097 679.696C379.537 681.872 377.425 682.96 375.761 682.96C374.161 682.96 372.209 681.616 369.905 678.928L348.785 654.832V673.552C348.785 675.088 348.721 676.208 348.593 676.912C348.529 677.616 348.241 678.448 347.729 679.408C346.833 681.136 344.337 682 340.241 682C335.761 682 333.137 680.784 332.369 678.352C331.985 677.328 331.793 675.696 331.793 673.456V620.08C331.793 618.608 331.825 617.52 331.889 616.816C332.017 616.048 332.337 615.184 332.849 614.224C333.745 612.496 336.241 611.632 340.337 611.632C344.817 611.632 347.473 612.816 348.305 615.184C348.625 616.272 348.785 617.936 348.785 620.176V638.512C357.489 628.72 364.529 620.688 369.905 614.416C372.145 611.792 374.097 610.48 375.761 610.48C377.425 610.48 379.537 611.6 382.097 613.84C384.657 616.016 385.937 617.936 385.937 619.6C385.937 621.2 384.977 623.12 383.057 625.36C379.345 629.648 373.585 635.536 365.777 643.024L361.937 646.672ZM393.106 620.08C393.106 618.608 393.138 617.52 393.202 616.816C393.33 616.048 393.65 615.184 394.162 614.224C395.058 612.496 397.554 611.632 401.65 611.632C406.13 611.632 408.786 612.816 409.618 615.184C409.938 616.272 410.098 617.936 410.098 620.176V673.552C410.098 675.088 410.034 676.208 409.906 676.912C409.842 677.616 409.554 678.448 409.042 679.408C408.146 681.136 405.65 682 401.554 682C397.074 682 394.45 680.784 393.682 678.352C393.298 677.328 393.106 675.696 393.106 673.456V620.08ZM434.754 665.008H464.322C465.794 665.008 466.882 665.072 467.586 665.2C468.354 665.264 469.218 665.552 470.178 666.064C471.906 666.96 472.77 669.456 472.77 673.552C472.77 678.032 471.586 680.656 469.218 681.424C468.13 681.808 466.466 682 464.226 682H426.21C421.73 682 419.106 680.784 418.338 678.352C417.954 677.328 417.762 675.696 417.762 673.456V620.08C417.762 616.816 418.37 614.608 419.586 613.456C420.802 612.24 423.106 611.632 426.498 611.632H464.322C465.794 611.632 466.882 611.696 467.586 611.824C468.354 611.888 469.218 612.176 470.178 612.688C471.906 613.584 472.77 616.08 472.77 620.176C472.77 624.656 471.586 627.28 469.218 628.048C468.13 628.432 466.466 628.624 464.226 628.624H434.754V638.32H453.762C455.234 638.32 456.322 638.384 457.026 638.512C457.794 638.576 458.658 638.864 459.618 639.376C461.346 640.272 462.21 642.768 462.21 646.864C462.21 651.344 460.994 653.968 458.562 654.736C457.474 655.12 455.81 655.312 453.57 655.312H434.754V665.008ZM539.166 611.632C541.662 611.632 543.486 611.856 544.638 612.304C545.854 612.688 546.718 613.36 547.23 614.32C547.934 615.792 548.286 617.776 548.286 620.272V657.424C548.286 664.144 545.854 670.096 540.99 675.28C536.126 680.4 529.918 682.96 522.366 682.96C518.142 682.96 514.398 682.032 511.134 680.176C508.19 678.576 506.142 677.136 504.99 675.856L504.222 675.088C501.982 672.72 500.862 670.704 500.862 669.04C500.862 667.312 501.982 665.296 504.222 662.992C506.462 660.688 508.446 659.536 510.174 659.536C511.902 659.536 513.822 660.592 515.934 662.704C518.046 664.816 520.318 665.872 522.75 665.872C525.246 665.872 527.294 665.04 528.894 663.376C530.494 661.712 531.294 659.504 531.294 656.752V620.848C531.294 617.008 531.934 614.544 533.214 613.456C534.686 612.24 536.67 611.632 539.166 611.632ZM596.557 616.624L622.477 670.192C623.565 672.368 624.109 674 624.109 675.088C624.109 677.392 622.253 679.472 618.541 681.328C616.365 682.416 614.637 682.96 613.357 682.96C612.141 682.96 611.117 682.672 610.285 682.096C609.517 681.52 608.941 680.912 608.557 680.272C608.237 679.632 607.757 678.672 607.117 677.392L602.125 667.024H575.533L570.541 677.392C569.901 678.672 569.389 679.6 569.005 680.176C568.685 680.752 568.109 681.36 567.277 682C566.509 682.576 565.485 682.864 564.205 682.864C562.989 682.864 561.293 682.32 559.117 681.232C555.405 679.44 553.549 677.392 553.549 675.088C553.549 674 554.093 672.368 555.181 670.192L581.101 616.528C581.805 615.056 582.861 613.872 584.269 612.976C585.741 612.08 587.277 611.632 588.877 611.632C592.333 611.632 594.893 613.296 596.557 616.624ZM588.781 639.664L582.445 652.816H595.213L588.781 639.664ZM683.212 670.096C684.172 672.4 684.652 674.064 684.652 675.088C684.652 677.52 682.668 679.568 678.7 681.232C676.652 682.128 674.988 682.576 673.708 682.576C672.492 682.576 671.468 682.288 670.636 681.712C669.868 681.072 669.292 680.432 668.908 679.792C668.268 678.576 665.772 672.784 661.42 662.416L658.444 662.608H646.348V673.456C646.348 674.928 646.284 676.048 646.156 676.816C646.092 677.52 645.804 678.352 645.292 679.312C644.396 681.04 641.9 681.904 637.804 681.904C633.324 681.904 630.7 680.72 629.932 678.352C629.548 677.264 629.356 675.6 629.356 673.36V620.08C629.356 618.608 629.388 617.52 629.452 616.816C629.58 616.048 629.9 615.184 630.412 614.224C631.308 612.496 633.804 611.632 637.9 611.632H658.636C664.268 611.632 669.74 613.68 675.052 617.776C677.612 619.76 679.724 622.448 681.388 625.84C683.052 629.232 683.884 633.008 683.884 637.168C683.884 644.4 681.484 650.352 676.684 655.024C678.092 658.416 680.268 663.44 683.212 670.096ZM646.348 645.616H658.636C660.492 645.616 662.348 644.912 664.204 643.504C666.06 642.096 666.988 639.984 666.988 637.168C666.988 634.352 666.06 632.24 664.204 630.832C662.348 629.36 660.428 628.624 658.444 628.624H646.348V645.616Z" fill="#3D2E2A"/>
<path d="M590.308 286.71C599.246 327.694 606.69 379.952 590.308 418.569C573.926 457.185 545.967 489.768 510.285 511.823C474.604 533.879 437.468 544.714 395.601 542.103C353.735 539.492 310.703 538.141 278.038 511.823C245.374 485.505 216.526 440.57 205.069 400.218C193.612 359.866 203.268 311.506 217.23 271.95C231.191 232.394 252.421 198.144 286.669 173.923C320.917 149.701 365.815 148.881 407.762 148.878C448.301 148.876 521.271 163.639 545.595 201.579C578.914 253.551 580.188 240.307 590.308 286.71Z" fill="url(#paint0_linear_343_117)"/>
<path d="M254.628 489.895C233.3 465.376 217.059 437.887 206.686 406.943C205.972 404.754 205.294 402.538 204.667 400.332C194.388 363.053 200.918 323.077 211.862 286.693C213.39 281.693 215.031 276.725 216.776 271.79C228.356 238.718 246.473 206.992 273.276 183.905C277.486 180.249 281.88 176.806 286.434 173.59C315.411 153.11 352.005 149.456 386.506 148.737C393.587 148.593 400.68 148.575 407.762 148.582C441.013 149.127 474.462 155.639 504.872 169.322C520.657 176.707 536.069 186.63 545.708 201.507C551.09 209.923 556.567 218.085 562.331 226.129C569.13 235.992 577.415 244.999 581.966 256.23C585.341 264.541 587.316 273.366 589.316 282.099C589.591 283.327 589.831 284.439 590.017 285.326C590.199 286.201 590.299 286.714 590.286 286.714C590.274 286.716 590.15 286.205 589.948 285.331C589.744 284.446 589.492 283.336 589.214 282.107C587.178 273.314 585.167 264.408 581.723 256.068C577.925 246.74 571.312 238.985 565.468 230.859C564.574 229.547 563.342 227.807 560.972 224.451C559.794 222.783 558.07 220.32 556.761 218.438C555.648 216.841 554.767 215.574 553.942 214.381C553.12 213.193 552.305 212.006 551.267 210.454C549.587 207.941 547.925 205.44 546.227 202.844C545.974 202.459 545.718 202.067 545.458 201.667C545.086 201.096 544.698 200.522 544.292 199.944C538.813 192.071 531.539 185.631 523.617 180.252C520.573 178.176 517.658 176.418 515.13 174.996C512.891 173.737 510.764 172.633 508.656 171.6C507.326 170.941 505.983 170.3 504.642 169.682C495.94 165.678 486.91 162.43 477.722 159.724C470.559 157.608 462.949 155.648 452.957 153.722C448.626 152.893 444.385 152.184 440.242 151.585C434.153 150.704 428.393 150.086 423.34 149.707C419.953 149.453 416.426 149.248 412.837 149.14C411.184 149.09 409.387 149.059 407.762 149.058C404.739 149.054 401.777 149.06 399.002 149.087C396.286 149.114 393.792 149.152 391.482 149.198C387.807 149.271 384.596 149.362 381.691 149.451C376.232 149.619 371.507 149.869 367.35 150.158C362.351 150.505 358.166 150.905 354.496 151.296C353.94 151.355 353.303 151.424 352.588 151.505C348.815 151.949 342.77 152.647 334.234 154.447C331.199 155.094 328.364 155.79 325.613 156.542C321.604 157.641 317.755 158.856 313.695 160.325C313.088 160.545 312.455 160.775 311.88 160.989C311.149 161.261 310.513 161.506 310.14 161.66C309.046 162.112 307.315 162.842 305.462 163.694C304.099 164.318 302.67 165.008 301.365 165.672C296.34 168.166 291.499 171.034 286.921 174.278C282.371 177.501 277.982 180.951 273.779 184.616C269.914 187.985 266.205 191.536 262.664 195.251C260.837 197.133 259.011 199.102 257.141 201.235C254.7 204.023 251.621 207.721 247.953 212.715C245.258 216.391 242.246 220.775 239.01 226.048C232.989 235.796 227.874 246.421 224.893 253.344C224.258 254.807 223.633 256.281 222.98 257.868C221.458 261.577 219.758 265.875 217.576 272.072C216.226 275.923 214.675 280.51 212.94 286.163C208.659 300.108 205.92 312.223 204.252 321.384C203.397 326.06 202.81 329.968 202.405 332.968C201.708 338.099 201.041 344.429 200.708 350.802C200.137 360.778 200.584 370.839 201.167 376.489C201.361 378.507 201.604 380.611 201.926 382.884C202.616 387.69 203.604 393.249 205.54 400.084C206.136 402.176 206.817 404.414 207.593 406.779C211.103 417.32 213.889 423.642 216.861 430.152C218.083 432.789 219.194 435.107 220.371 437.475C222.045 440.831 223.85 444.313 226.49 448.905C227.108 449.978 227.776 451.113 228.486 452.297C229.79 454.473 231.232 456.804 232.739 459.173C233.265 459.999 233.728 460.726 234.186 461.437C234.69 462.219 235.188 462.983 235.762 463.842C237.907 467.051 240.072 470.12 242.047 472.809C244.591 476.276 246.822 479.116 248.217 480.867C250.703 483.99 253.514 487.325 256.47 490.613C258.723 493.12 261.069 495.609 263.379 497.951C267.36 501.988 272.434 506.776 278.304 511.494C282.193 514.623 286.524 517.612 291.124 520.274C295.495 522.789 299.324 524.714 304.367 526.855C307.509 528.175 311.133 529.561 315.729 531.013C318.335 531.833 320.567 532.446 322.643 532.981C324.553 533.472 326.337 533.895 328.165 534.315C329.784 534.686 330.803 534.918 331.776 535.136C332.858 535.378 333.877 535.602 335.593 535.918C336.507 536.086 337.62 536.278 338.945 536.492C339.469 536.576 340.029 536.665 340.623 536.757C340.592 536.755 340.584 536.757 340.583 536.76C340.58 536.777 342.332 537.072 344.062 537.335C344.754 537.441 345.44 537.542 346.004 537.626C348.082 537.937 352.033 538.441 355.054 538.765C356.335 538.905 357.492 539.032 358.846 539.172C360.049 539.297 361.402 539.433 363.132 539.591C364.12 539.681 364.877 539.75 365.503 539.807C365.957 539.849 366.343 539.883 366.701 539.913C367.011 539.939 367.262 539.954 367.544 539.971C367.747 539.984 367.968 539.997 368.239 540.015C368.885 540.06 369.716 540.121 370.299 540.168C370.569 540.189 370.781 540.207 370.993 540.225C371.239 540.245 371.483 540.266 371.821 540.291C373.369 540.408 374.876 540.508 376.442 540.608C378.162 540.718 379.958 540.828 381.956 540.959C382.585 541 383.255 541.046 383.904 541.09C384.582 541.135 385.242 541.18 385.803 541.215C388.08 541.358 390.223 541.475 392.194 541.584C393.404 541.651 394.551 541.715 395.622 541.779C395.711 541.785 395.801 541.79 395.889 541.795C397.997 541.919 399.116 541.948 399.952 541.972C400.384 541.984 400.737 541.992 401.106 542.004C401.445 542.016 401.788 542.027 402.123 542.038C402.431 542.048 402.748 542.058 403.046 542.065C403.069 542.065 403.091 542.066 403.114 542.066C405 542.115 406.836 542.138 408.68 542.134C412.802 542.125 416.877 541.988 421.173 541.672C422.097 541.604 423.04 541.522 423.998 541.431C425.172 541.32 426.368 541.195 427.591 541.063C430.497 540.75 433.431 540.37 436.306 539.925C440.631 539.257 444.833 538.438 448.66 537.535C449.923 537.237 451.152 536.93 452.38 536.608C453.065 536.43 453.752 536.246 454.444 536.057C454.299 536.104 454.222 536.132 454.151 536.158C454.005 536.212 453.878 536.26 453.214 536.443C451.644 536.878 449.856 537.341 450.061 537.318C450.117 537.312 450.075 537.33 450.029 537.349C449.913 537.396 449.797 537.449 451.269 537.098C452.262 536.863 454.805 536.221 456.406 535.755C456.755 535.655 456.966 535.588 457.201 535.514C457.623 535.381 458.127 535.226 459.64 534.773C459.894 534.697 460.171 534.613 460.457 534.526C461.598 534.179 462.87 533.774 463.342 533.611C463.885 533.424 463.764 533.448 463.623 533.477C463.439 533.513 463.221 533.56 464.389 533.148C464.62 533.066 465.063 532.918 465.398 532.805C465.634 532.725 465.814 532.663 465.831 532.655C465.851 532.647 465.775 532.668 465.677 532.695C465.331 532.788 464.738 532.963 467.183 532.126C467.844 531.897 468.601 531.633 469.277 531.392C470.273 531.038 471.097 530.734 471.206 530.688C471.246 530.671 471.275 530.658 471.298 530.647C472.088 530.354 472.877 530.056 473.662 529.754C474.67 529.372 476.085 528.816 477.832 528.095C478.257 527.92 478.704 527.734 479.168 527.538C480.699 526.896 482.226 526.232 483.741 525.553C484.941 525.016 486.223 524.43 487.559 523.804C490.246 522.545 492.566 521.407 494.811 520.265C495.758 519.784 496.698 519.297 497.639 518.8C497.273 518.998 496.944 519.176 496.69 519.313C494.944 520.254 494.249 520.633 493.61 520.986C493.186 521.219 492.781 521.441 492.106 521.79C490.87 522.428 491.002 522.379 491.1 522.347C491.151 522.33 491.189 522.318 491.025 522.403C490.893 522.472 490.585 522.625 490.267 522.783C489.99 522.92 489.701 523.062 489.518 523.154C487.287 524.26 487.968 523.948 488.959 523.498C489.506 523.249 490.144 522.954 490.441 522.831C490.696 522.728 490.621 522.776 489.449 523.355C490.371 522.92 491.282 522.482 492.196 522.034C492.552 521.854 492.82 521.712 493.194 521.509C493.861 521.15 496.056 520.009 497.75 519.087C498.534 518.662 499.216 518.286 499.601 518.071C501.638 516.926 501.029 517.234 500.499 517.507C500.207 517.657 499.936 517.796 500.14 517.674C500.226 517.622 500.098 517.689 499.97 517.757C499.87 517.809 499.768 517.862 499.762 517.862C499.728 517.859 500.927 517.182 502.035 516.538C502.67 516.17 503.276 515.813 503.606 515.614C503.707 515.553 503.787 515.504 503.861 515.458C503.97 515.391 504.077 515.326 504.244 515.226C504.626 514.997 505.416 514.531 506.281 514.012C506.725 513.746 507.185 513.468 507.619 513.204C508.182 512.86 508.381 512.73 508.591 512.592C508.74 512.495 508.895 512.394 509.184 512.211C509.418 512.064 509.758 511.852 510.151 511.606C510.639 511.301 511.207 510.945 511.75 510.6C512.176 510.33 512.587 510.067 512.932 509.843C513.073 509.753 513.14 509.708 513.153 509.697C514.751 508.663 516.259 507.655 517.718 506.653C524.995 501.604 531.126 496.958 539.655 489.315C541.261 487.864 542.96 486.274 544.643 484.636C550.043 479.407 555.153 473.873 559.937 468.078C560.896 466.941 562.053 465.536 563.386 463.844C565.888 460.664 568.367 457.316 571.137 453.259C573.181 450.258 575.383 446.866 577.801 442.823C581.854 436.028 585.654 428.824 589.337 420.425C589.614 419.794 589.889 419.154 590.164 418.508C593.572 410.61 595.966 401.409 597.182 394.689C597.922 390.72 598.521 386.536 598.938 382.605C599.53 377.082 599.763 372.1 599.821 369.059C599.84 368.088 599.844 367.146 599.843 366.232C599.843 365.582 599.839 364.941 599.835 364.312C599.847 362.636 599.839 360.962 599.814 359.285C599.787 356.308 599.647 351.682 599.333 347.219C599.225 345.493 599.099 343.768 598.964 342.103C598.669 338.47 598.315 334.921 597.903 331.347C597.768 330.179 597.626 329.001 597.477 327.823C597.476 327.812 597.475 327.801 597.473 327.789C597.174 325.41 596.849 323.024 596.507 320.675C596.361 319.671 596.211 318.666 596.057 317.66C595.667 315.111 595.248 312.54 594.816 310.022C594.587 308.684 594.352 307.349 594.108 305.998C593.713 303.809 593.301 301.612 592.878 299.43C592.192 295.891 591.476 292.391 590.728 288.875C590.605 288.301 590.489 287.75 590.406 287.346C590.323 286.943 590.279 286.715 590.285 286.715C590.291 286.714 590.347 286.941 590.439 287.344C590.531 287.747 590.653 288.296 590.777 288.87C591.537 292.386 592.264 295.889 592.962 299.428C593.392 301.61 593.811 303.805 594.212 305.993C594.46 307.345 594.699 308.678 594.933 310.017C595.372 312.534 595.8 315.109 596.197 317.658C596.355 318.664 596.508 319.669 596.657 320.673C597.006 323.028 597.339 325.421 597.646 327.806C597.648 327.821 597.65 327.835 597.652 327.849C597.802 329.019 597.947 330.19 598.084 331.35C598.507 334.926 598.872 338.479 599.177 342.115C599.335 343.993 599.481 345.953 599.604 347.899C599.672 348.981 599.734 350.064 599.789 351.127C599.818 351.708 599.847 352.297 599.873 352.889C600.464 366.476 600.03 380.055 597.689 393.515C596.187 402.099 593.877 410.597 590.476 418.64C588.58 423.125 586.523 427.539 584.313 431.869C578.127 443.989 570.728 455.466 562.25 466.098C547.806 484.225 530.205 499.865 510.452 512.093C476.511 533.553 435.943 545.428 395.575 542.521C372.598 541.085 349.397 540.145 326.822 534.919C314.771 532.127 302.643 527.879 291.821 521.743C286.847 518.935 282.142 515.754 277.732 512.203C272.461 507.958 267.453 503.373 262.635 498.488C259.96 495.775 257.282 492.904 254.628 489.895Z" fill="#4E3B37"/>
<ellipse cx="330.741" cy="242.117" rx="32.4312" ry="32.4309" fill="url(#paint1_linear_343_117)"/>
<ellipse cx="395.601" cy="347.517" rx="32.4312" ry="32.4309" fill="url(#paint2_linear_343_117)"/>
<ellipse cx="501.001" cy="282.656" rx="32.4312" ry="32.4309" fill="url(#paint3_linear_343_117)"/>
<path d="M468.57 161.041C468.57 178.952 454.05 193.472 436.139 193.472C418.228 193.472 403.708 178.952 403.708 161.041C403.708 143.13 418.228 148.879 436.139 148.879C452.355 152.933 468.57 156.987 468.57 161.041Z" fill="url(#paint4_linear_343_117)"/>
<ellipse cx="492.9" cy="428.594" rx="32.4312" ry="32.4309" fill="url(#paint5_linear_343_117)"/>
<path d="M411.816 525.889C411.816 543.8 397.297 542.105 379.385 542.105C361.474 542.105 346.954 543.8 346.954 525.889C346.954 507.978 361.474 493.458 379.385 493.458C397.297 493.458 411.816 507.978 411.816 525.889Z" fill="url(#paint6_linear_343_117)"/>
<ellipse cx="290.203" cy="412.381" rx="32.4312" ry="32.4309" fill="url(#paint7_linear_343_117)"/>
<defs>
<linearGradient id="paint0_linear_343_117" x1="403.708" y1="136.717" x2="403.708" y2="542.103" gradientUnits="userSpaceOnUse">
<stop stop-color="#E3923B"/>
<stop offset="1" stop-color="#BE6300"/>
</linearGradient>
<linearGradient id="paint1_linear_343_117" x1="330.741" y1="209.687" x2="330.741" y2="274.548" gradientUnits="userSpaceOnUse">
<stop stop-color="#513E3A"/>
<stop offset="1" stop-color="#342623"/>
</linearGradient>
<linearGradient id="paint2_linear_343_117" x1="395.601" y1="315.086" x2="395.601" y2="379.948" gradientUnits="userSpaceOnUse">
<stop stop-color="#513E3A"/>
<stop offset="1" stop-color="#342623"/>
</linearGradient>
<linearGradient id="paint3_linear_343_117" x1="501.001" y1="250.226" x2="501.001" y2="315.087" gradientUnits="userSpaceOnUse">
<stop stop-color="#513E3A"/>
<stop offset="1" stop-color="#342623"/>
</linearGradient>
<linearGradient id="paint4_linear_343_117" x1="436.139" y1="128.61" x2="436.139" y2="193.471" gradientUnits="userSpaceOnUse">
<stop stop-color="#513E3A"/>
<stop offset="1" stop-color="#342623"/>
</linearGradient>
<linearGradient id="paint5_linear_343_117" x1="492.9" y1="396.163" x2="492.9" y2="461.025" gradientUnits="userSpaceOnUse">
<stop stop-color="#513E3A"/>
<stop offset="1" stop-color="#342623"/>
</linearGradient>
<linearGradient id="paint6_linear_343_117" x1="379.385" y1="493.458" x2="379.385" y2="558.32" gradientUnits="userSpaceOnUse">
<stop stop-color="#513E3A"/>
<stop offset="1" stop-color="#342623"/>
</linearGradient>
<linearGradient id="paint7_linear_343_117" x1="290.203" y1="379.95" x2="290.203" y2="444.811" gradientUnits="userSpaceOnUse">
<stop stop-color="#513E3A"/>
<stop offset="1" stop-color="#342623"/>
</linearGradient>
</defs>
</svg>
