<svg width="800" height="800" viewBox="0 0 800 800" fill="none" xmlns="http://www.w3.org/2000/svg">
<rect width="800" height="800" fill="#57BA69"/>
<path d="M407.695 153C500.095 153 575 227.906 575 320.309C575 412.711 500.095 487.618 407.695 487.618C315.296 487.618 240.39 412.711 240.39 320.309C240.39 227.906 315.296 153 407.695 153Z" stroke="url(#paint0_linear_343_131)" stroke-width="50"/>
<path d="M278.399 452.311L200 528.004" stroke="url(#paint1_linear_343_131)" stroke-width="50" stroke-linecap="round"/>
<path d="M419.536 218.348C420.618 215.43 423.614 214.372 425.862 215.329C446.78 224.232 465.972 235.603 478.732 251.556C491.48 267.493 498.241 288.542 502.291 310.852C502.73 313.267 501.029 315.96 497.947 316.374C495.201 316.743 492.071 314.796 491.335 311.185C487.722 293.438 481.49 275.394 469.35 260.217C457.222 245.055 440.197 234.007 423.219 226.107C419.774 224.504 418.576 220.938 419.536 218.348Z" stroke="url(#paint2_linear_343_131)" stroke-width="20"/>
<ellipse cx="488.463" cy="366.463" rx="19.2305" ry="19.2309" fill="url(#paint3_linear_343_131)"/>
<path d="M111.812 676L90.0204 608.8H109.604L127.94 666.976H118.052L137.348 608.8H154.82L173.06 666.976H163.556L182.468 608.8H200.612L178.82 676H158.468L142.916 626.56H148.388L132.164 676H111.812ZM229.979 676.864C223.835 676.864 218.459 675.712 213.851 673.408C209.307 671.04 205.755 667.84 203.195 663.808C200.699 659.712 199.451 655.072 199.451 649.888C199.451 644.704 200.667 640.096 203.099 636.064C205.595 631.968 209.019 628.8 213.371 626.56C217.723 624.256 222.619 623.104 228.059 623.104C233.179 623.104 237.851 624.16 242.075 626.272C246.299 628.32 249.659 631.36 252.155 635.392C254.651 639.424 255.899 644.32 255.899 650.08C255.899 650.72 255.867 651.456 255.803 652.288C255.739 653.12 255.675 653.888 255.611 654.592H214.427V644.992H245.915L239.003 647.68C239.067 645.312 238.619 643.264 237.659 641.536C236.763 639.808 235.483 638.464 233.819 637.504C232.219 636.544 230.331 636.064 228.155 636.064C225.979 636.064 224.059 636.544 222.395 637.504C220.795 638.464 219.547 639.84 218.651 641.632C217.755 643.36 217.307 645.408 217.307 647.776V650.56C217.307 653.12 217.819 655.328 218.843 657.184C219.931 659.04 221.467 660.48 223.451 661.504C225.435 662.464 227.803 662.944 230.555 662.944C233.115 662.944 235.291 662.592 237.083 661.888C238.939 661.12 240.763 659.968 242.555 658.432L252.155 668.416C249.659 671.168 246.587 673.28 242.939 674.752C239.291 676.16 234.971 676.864 229.979 676.864ZM291.573 676.864C285.429 676.864 280.053 675.712 275.445 673.408C270.901 671.04 267.349 667.84 264.789 663.808C262.293 659.712 261.045 655.072 261.045 649.888C261.045 644.704 262.261 640.096 264.693 636.064C267.189 631.968 270.613 628.8 274.965 626.56C279.317 624.256 284.213 623.104 289.653 623.104C294.773 623.104 299.445 624.16 303.669 626.272C307.893 628.32 311.253 631.36 313.749 635.392C316.245 639.424 317.493 644.32 317.493 650.08C317.493 650.72 317.461 651.456 317.397 652.288C317.333 653.12 317.269 653.888 317.205 654.592H276.021V644.992H307.509L300.597 647.68C300.661 645.312 300.213 643.264 299.253 641.536C298.357 639.808 297.077 638.464 295.413 637.504C293.813 636.544 291.925 636.064 289.749 636.064C287.573 636.064 285.653 636.544 283.989 637.504C282.389 638.464 281.141 639.84 280.245 641.632C279.349 643.36 278.901 645.408 278.901 647.776V650.56C278.901 653.12 279.413 655.328 280.437 657.184C281.525 659.04 283.061 660.48 285.045 661.504C287.029 662.464 289.397 662.944 292.149 662.944C294.709 662.944 296.885 662.592 298.677 661.888C300.533 661.12 302.357 659.968 304.149 658.432L313.749 668.416C311.253 671.168 308.181 673.28 304.533 674.752C300.885 676.16 296.565 676.864 291.573 676.864ZM348.559 676.864C343.823 676.864 339.503 675.776 335.599 673.6C331.759 671.36 328.687 668.256 326.383 664.288C324.079 660.256 322.927 655.456 322.927 649.888C322.927 644.384 324.079 639.648 326.383 635.68C328.687 631.648 331.759 628.544 335.599 626.368C339.503 624.192 343.823 623.104 348.559 623.104C353.039 623.104 356.815 624.064 359.887 625.984C363.023 627.904 365.391 630.848 366.991 634.816C368.591 638.784 369.391 643.808 369.391 649.888C369.391 656.096 368.623 661.184 367.087 665.152C365.551 669.12 363.247 672.064 360.175 673.984C357.103 675.904 353.231 676.864 348.559 676.864ZM352.399 662.368C354.447 662.368 356.271 661.888 357.871 660.928C359.535 659.968 360.847 658.56 361.807 656.704C362.767 654.784 363.247 652.512 363.247 649.888C363.247 647.264 362.767 645.056 361.807 643.264C360.847 641.408 359.535 640 357.871 639.04C356.271 638.08 354.447 637.6 352.399 637.6C350.287 637.6 348.399 638.08 346.735 639.04C345.135 640 343.855 641.408 342.895 643.264C341.935 645.056 341.455 647.264 341.455 649.888C341.455 652.512 341.935 654.784 342.895 656.704C343.855 658.56 345.135 659.968 346.735 660.928C348.399 661.888 350.287 662.368 352.399 662.368ZM363.823 676V667.072L363.919 649.888L362.959 632.704V604.768H381.199V676H363.823Z" fill="url(#paint4_linear_343_131)"/>
<path d="M427.302 677.344C421.99 677.344 417.062 676.512 412.518 674.848C408.038 673.12 404.134 670.688 400.806 667.552C397.542 664.416 394.982 660.736 393.126 656.512C391.27 652.224 390.342 647.52 390.342 642.4C390.342 637.28 391.27 632.608 393.126 628.384C394.982 624.096 397.542 620.384 400.806 617.248C404.134 614.112 408.038 611.712 412.518 610.048C417.062 608.32 421.99 607.456 427.302 607.456C433.51 607.456 439.046 608.544 443.91 610.72C448.838 612.896 452.934 616.032 456.198 620.128L444.102 631.072C441.926 628.512 439.526 626.56 436.902 625.216C434.342 623.872 431.462 623.2 428.262 623.2C425.51 623.2 422.982 623.648 420.678 624.544C418.374 625.44 416.39 626.752 414.726 628.48C413.126 630.144 411.846 632.16 410.886 634.528C409.99 636.896 409.542 639.52 409.542 642.4C409.542 645.28 409.99 647.904 410.886 650.272C411.846 652.64 413.126 654.688 414.726 656.416C416.39 658.08 418.374 659.36 420.678 660.256C422.982 661.152 425.51 661.6 428.262 661.6C431.462 661.6 434.342 660.928 436.902 659.584C439.526 658.24 441.926 656.288 444.102 653.728L456.198 664.672C452.934 668.704 448.838 671.84 443.91 674.08C439.046 676.256 433.51 677.344 427.302 677.344ZM497.697 623.104C501.729 623.104 505.377 623.936 508.641 625.6C511.905 627.2 514.465 629.696 516.321 633.088C518.241 636.48 519.201 640.864 519.201 646.24V676H500.961V649.216C500.961 645.504 500.193 642.816 498.657 641.152C497.185 639.424 495.105 638.56 492.417 638.56C490.497 638.56 488.737 639.008 487.137 639.904C485.537 640.736 484.289 642.048 483.393 643.84C482.497 645.632 482.049 647.968 482.049 650.848V676H463.809V604.768H482.049V638.752L477.825 634.432C479.809 630.656 482.529 627.84 485.985 625.984C489.441 624.064 493.345 623.104 497.697 623.104ZM558.573 676.864C552.429 676.864 547.053 675.712 542.445 673.408C537.901 671.04 534.349 667.84 531.789 663.808C529.293 659.712 528.045 655.072 528.045 649.888C528.045 644.704 529.261 640.096 531.693 636.064C534.189 631.968 537.613 628.8 541.965 626.56C546.317 624.256 551.213 623.104 556.653 623.104C561.773 623.104 566.445 624.16 570.669 626.272C574.893 628.32 578.253 631.36 580.749 635.392C583.245 639.424 584.493 644.32 584.493 650.08C584.493 650.72 584.461 651.456 584.397 652.288C584.333 653.12 584.269 653.888 584.205 654.592H543.021V644.992H574.509L567.597 647.68C567.661 645.312 567.213 643.264 566.253 641.536C565.357 639.808 564.077 638.464 562.413 637.504C560.813 636.544 558.925 636.064 556.749 636.064C554.573 636.064 552.653 636.544 550.989 637.504C549.389 638.464 548.141 639.84 547.245 641.632C546.349 643.36 545.901 645.408 545.901 647.776V650.56C545.901 653.12 546.413 655.328 547.437 657.184C548.525 659.04 550.061 660.48 552.045 661.504C554.029 662.464 556.397 662.944 559.149 662.944C561.709 662.944 563.885 662.592 565.677 661.888C567.533 661.12 569.357 659.968 571.149 658.432L580.749 668.416C578.253 671.168 575.181 673.28 571.533 674.752C567.885 676.16 563.565 676.864 558.573 676.864ZM619.495 676.864C613.735 676.864 608.583 675.712 604.039 673.408C599.559 671.104 596.039 667.936 593.479 663.904C590.919 659.808 589.639 655.136 589.639 649.888C589.639 644.64 590.919 640 593.479 635.968C596.039 631.936 599.559 628.8 604.039 626.56C608.583 624.256 613.735 623.104 619.495 623.104C625.383 623.104 630.471 624.352 634.759 626.848C639.047 629.344 642.087 632.864 643.879 637.408L629.767 644.608C628.551 642.176 627.047 640.416 625.255 639.328C623.463 638.176 621.511 637.6 619.399 637.6C617.287 637.6 615.367 638.08 613.639 639.04C611.911 640 610.535 641.408 609.511 643.264C608.551 645.056 608.071 647.264 608.071 649.888C608.071 652.576 608.551 654.848 609.511 656.704C610.535 658.56 611.911 659.968 613.639 660.928C615.367 661.888 617.287 662.368 619.399 662.368C621.511 662.368 623.463 661.824 625.255 660.736C627.047 659.584 628.551 657.792 629.767 655.36L643.879 662.56C642.087 667.104 639.047 670.624 634.759 673.12C630.471 675.616 625.383 676.864 619.495 676.864ZM665.727 666.4L666.207 644.608L687.423 623.968H709.023L685.503 648.256L676.191 655.744L665.727 666.4ZM650.559 676V604.768H668.799V676H650.559ZM688.767 676L672.831 656.032L684.159 642.016L710.847 676H688.767Z" fill="url(#paint5_linear_343_131)"/>
<defs>
<linearGradient id="paint0_linear_343_131" x1="215.39" y1="320.309" x2="600" y2="320.309" gradientUnits="userSpaceOnUse">
<stop/>
<stop offset="1" stop-color="#008535"/>
</linearGradient>
<linearGradient id="paint1_linear_343_131" x1="278.052" y1="451.951" x2="199.651" y2="527.642" gradientUnits="userSpaceOnUse">
<stop/>
<stop offset="1" stop-color="#008535"/>
</linearGradient>
<linearGradient id="paint2_linear_343_131" x1="406.073" y1="265.894" x2="512.383" y2="262.259" gradientUnits="userSpaceOnUse">
<stop/>
<stop offset="1" stop-color="#008535"/>
</linearGradient>
<linearGradient id="paint3_linear_343_131" x1="469.232" y1="366.463" x2="507.693" y2="366.463" gradientUnits="userSpaceOnUse">
<stop stop-color="#1A280F"/>
<stop offset="1" stop-color="#00A642"/>
</linearGradient>
<linearGradient id="paint4_linear_343_131" x1="88" y1="583" x2="398.548" y2="679.079" gradientUnits="userSpaceOnUse">
<stop/>
<stop offset="1" stop-color="#00752F"/>
</linearGradient>
<linearGradient id="paint5_linear_343_131" x1="399.5" y1="676" x2="710.858" y2="640.265" gradientUnits="userSpaceOnUse">
<stop stop-color="#FE6339"/>
<stop offset="1" stop-color="#FFD400"/>
</linearGradient>
</defs>
</svg>
